<svg width="28" height="28" viewBox="0 0 28 28" fill="none" xmlns="http://www.w3.org/2000/svg">
<path d="M14 0C6.27789 0 0 6.27789 0 14C0 21.7221 6.27789 28 14 28C21.7221 28 28 21.7221 28 14C28 6.27789 21.7221 0 14 0ZM14 25.6716C7.57474 25.6716 2.32842 20.4253 2.32842 14C2.32842 7.57474 7.57474 2.32842 14 2.32842C20.4253 2.32842 25.6716 7.57474 25.6716 14C25.6716 20.4253 20.4253 25.6716 14 25.6716Z" fill="black"/>
<path d="M13.7951 5.15808C11.9952 5.1624 10.2415 5.72751 8.77766 6.77483C7.31392 7.82218 6.21298 9.29975 5.62796 11.0019C5.04296 12.704 5.00301 14.5461 5.51361 16.272C6.02421 17.9979 7.0599 19.5217 8.47694 20.6316C9.50023 21.6122 10.709 22.3787 12.0322 22.8863C13.9603 23.6384 16.073 23.7786 18.0835 23.2879C18.6196 23.1663 18.9898 22.5824 18.7927 22.1495C18.638 21.8124 18.6085 21.4495 18.498 21.1051C18.498 21.0903 18.498 21.0755 18.509 21.0609C20.0675 20.0412 21.2556 18.5462 21.8971 16.7979C22.5386 15.0494 22.5992 13.1409 22.0699 11.3553C21.5406 9.56965 20.4497 8.00232 18.959 6.88601C17.4684 5.76965 15.6575 5.16364 13.7951 5.15796L13.7951 5.15808ZM10.0593 15.426C9.77711 15.428 9.50582 15.3172 9.3056 15.1183C9.10538 14.9195 8.99277 14.649 8.99283 14.3668C8.99283 14.0846 9.10544 13.814 9.30566 13.6152C9.50595 13.4164 9.77723 13.3056 10.0594 13.3076C10.3416 13.3096 10.6113 13.4241 10.8088 13.6257C11.0062 13.8273 11.115 14.0994 11.1111 14.3815C11.1082 14.6589 10.9962 14.924 10.7994 15.1194C10.6026 15.3149 10.3367 15.425 10.0593 15.426H10.0593ZM13.784 15.426C13.5035 15.4236 13.2355 15.3099 13.0386 15.1101C12.8418 14.9103 12.7323 14.6406 12.7341 14.3601C12.7358 14.0796 12.8488 13.8113 13.0481 13.614C13.2475 13.4167 13.517 13.3065 13.7975 13.3076C14.078 13.3088 14.3466 13.4211 14.5443 13.62C14.7421 13.819 14.8529 14.0881 14.8524 14.3687C14.8495 14.6502 14.7357 14.9194 14.5357 15.1177C14.3357 15.3159 14.0656 15.4274 13.784 15.4279L13.784 15.426ZM17.5309 15.426C17.2495 15.4275 16.9792 15.317 16.7794 15.1188C16.5797 14.9207 16.467 14.6512 16.4662 14.3699C16.4653 14.0885 16.5765 13.8184 16.7751 13.6191C16.9737 13.4199 17.2434 13.3077 17.5248 13.3076C17.8061 13.3074 18.076 13.4192 18.2747 13.6182C18.4736 13.8173 18.5851 14.0873 18.5846 14.3686C18.5851 14.6487 18.4744 14.9176 18.2768 15.1162C18.0793 15.3148 17.811 15.4269 17.5309 15.4278V15.426Z" fill="white"/>
</svg>
