<svg width="28" height="28" viewBox="0 0 28 28" fill="none" xmlns="http://www.w3.org/2000/svg">
<path d="M14 0C6.27789 0 0 6.27789 0 14C0 21.7221 6.27789 28 14 28C21.7221 28 28 21.7221 28 14C28 6.27789 21.7221 0 14 0ZM14 25.6716C7.57474 25.6716 2.32842 20.4253 2.32842 14C2.32842 7.57474 7.57474 2.32842 14 2.32842C20.4253 2.32842 25.6716 7.57474 25.6716 14C25.6716 20.4253 20.4253 25.6716 14 25.6716Z" fill="black"/>
<path d="M13.7951 5.15784C11.9952 5.16215 10.2415 5.72726 8.77766 6.77459C7.31392 7.82193 6.21298 9.2995 5.62796 11.0016C5.04296 12.7037 5.00301 14.5458 5.51361 16.2717C6.02421 17.9976 7.0599 19.5215 8.47694 20.6314C9.50023 21.612 10.709 22.3785 12.0322 22.8861C13.9603 23.6381 16.073 23.7783 18.0835 23.2877C18.6196 23.1661 18.9898 22.5821 18.7927 22.1493C18.638 21.8121 18.6085 21.4492 18.498 21.1048C18.498 21.0901 18.498 21.0753 18.509 21.0606C20.0675 20.041 21.2556 18.546 21.8971 16.7977C22.5386 15.0492 22.5992 13.1406 22.0699 11.355C21.5406 9.5694 20.4497 8.00208 18.959 6.88576C17.4684 5.7694 15.6575 5.16339 13.7951 5.15771L13.7951 5.15784ZM10.0593 15.4257C9.77711 15.4277 9.50582 15.317 9.3056 15.1181C9.10538 14.9192 8.99277 14.6487 8.99283 14.3665C8.99283 14.0843 9.10544 13.8138 9.30566 13.615C9.50595 13.4161 9.77723 13.3054 10.0594 13.3074C10.3416 13.3094 10.6113 13.4238 10.8088 13.6254C11.0062 13.827 11.115 14.0991 11.1111 14.3813C11.1082 14.6587 10.9962 14.9238 10.7994 15.1192C10.6026 15.3147 10.3367 15.4248 10.0593 15.4257H10.0593ZM13.784 15.4257C13.5035 15.4233 13.2355 15.3097 13.0386 15.1099C12.8418 14.91 12.7323 14.6403 12.7341 14.3599C12.7358 14.0794 12.8488 13.811 13.0481 13.6137C13.2475 13.4164 13.517 13.3063 13.7975 13.3074C14.078 13.3085 14.3466 13.4208 14.5443 13.6197C14.7421 13.8187 14.8529 14.0879 14.8524 14.3684C14.8495 14.65 14.7357 14.9191 14.5357 15.1174C14.3357 15.3157 14.0656 15.4271 13.784 15.4276L13.784 15.4257ZM17.5309 15.4257C17.2495 15.4272 16.9792 15.3167 16.7794 15.1185C16.5797 14.9204 16.467 14.651 16.4662 14.3696C16.4653 14.0883 16.5765 13.8181 16.7751 13.6189C16.9737 13.4196 17.2434 13.3075 17.5248 13.3074C17.8061 13.3072 18.076 13.419 18.2747 13.618C18.4736 13.8171 18.5851 14.087 18.5846 14.3684C18.5851 14.6485 18.4744 14.9174 18.2768 15.116C18.0793 15.3146 17.811 15.4266 17.5309 15.4276V15.4257Z" fill="#3555C7"/>
</svg>
