<svg width="28" height="28" viewBox="0 0 28 28" fill="none" xmlns="http://www.w3.org/2000/svg">
<path d="M14 0C6.27789 0 0 6.27789 0 14C0 21.7221 6.27789 28 14 28C21.7221 28 28 21.7221 28 14C28 6.27789 21.7221 0 14 0ZM14 25.6716C7.57474 25.6716 2.32842 20.4253 2.32842 14C2.32842 7.57474 7.57474 2.32842 14 2.32842C20.4253 2.32842 25.6716 7.57474 25.6716 14C25.6716 20.4253 20.4253 25.6716 14 25.6716Z" fill="black"/>
<path d="M14 5.15771C9.11688 5.15771 5.1579 9.1167 5.1579 13.9998C5.1579 18.8829 9.11661 22.8419 14 22.8419C18.8839 22.8419 22.8421 18.8829 22.8421 13.9998C22.8421 9.1167 18.8839 5.15771 14 5.15771ZM17.187 18.7727C17.1851 18.7727 17.183 18.7723 17.1811 18.7723C17.1111 18.7893 17.0394 18.8007 16.9647 18.8007H16.948C11.6911 18.7088 9.57007 13.5774 9.18352 10.8767C9.16399 10.7421 9.17662 10.611 9.21248 10.4885C9.34682 9.83779 9.97788 9.34489 10.7371 9.34489C11.5937 9.34489 12.2885 9.97245 12.2885 10.7463C12.2885 11.3217 11.9044 11.8158 11.3552 12.0313C11.8752 13.6563 13.0966 16.1685 15.7673 16.8061C16.0079 16.3129 16.5522 15.968 17.187 15.968C18.0439 15.968 18.7387 16.5958 18.7387 17.3704C18.7385 18.1449 18.0438 18.7726 17.1869 18.7726L17.187 18.7727Z" fill="#3555C7"/>
</svg>
