<svg width="28" height="28" viewBox="0 0 28 28" fill="none" xmlns="http://www.w3.org/2000/svg">
<path d="M14 0C6.2779 0 0 6.27789 0 14C0 21.7221 6.2779 28 14 28C21.7221 28 28 21.7221 28 14C28 6.27789 21.7221 0 14 0ZM14 25.6716C7.57474 25.6716 2.32842 20.4253 2.32842 14C2.32842 7.57474 7.57474 2.32842 14 2.32842C20.4253 2.32842 25.6716 7.57474 25.6716 14C25.6716 20.4253 20.4253 25.6716 14 25.6716Z" fill="white"/>
<path d="M14 5.15771C9.11689 5.15771 5.15791 9.1167 5.15791 13.9998C5.15791 18.8829 9.11662 22.8419 14 22.8419C18.884 22.8419 22.8421 18.8829 22.8421 13.9998C22.8421 9.1167 18.884 5.15771 14 5.15771ZM17.187 18.7727C17.1851 18.7727 17.1831 18.7723 17.1811 18.7723C17.1111 18.7893 17.0394 18.8007 16.9647 18.8007H16.948C11.6911 18.7088 9.57009 13.5774 9.18353 10.8767C9.16401 10.7421 9.17663 10.611 9.2125 10.4885C9.34684 9.83779 9.97789 9.34489 10.7371 9.34489C11.5938 9.34489 12.2885 9.97245 12.2885 10.7463C12.2885 11.3217 11.9044 11.8158 11.3552 12.0313C11.8752 13.6563 13.0966 16.1685 15.7673 16.8061C16.0079 16.3129 16.5522 15.968 17.187 15.968C18.044 15.968 18.7387 16.5958 18.7387 17.3704C18.7386 18.1449 18.0438 18.7726 17.1869 18.7726L17.187 18.7727Z" fill="#36A8C8"/>
</svg>
