<svg width="168" height="30" viewBox="0 0 168 30" fill="none" xmlns="http://www.w3.org/2000/svg">
<path d="M0 0.552734H2.54809V19.9383H12.3877V22.3387H0V0.552734Z" fill="white"/>
<path d="M12.1142 15.1381C12.0979 14.0851 12.2938 13.0399 12.6901 12.0664C13.0508 11.1712 13.5871 10.3595 14.2664 9.68063C14.9505 8.99984 15.7668 8.47063 16.6634 8.12657C18.6227 7.3875 20.779 7.3875 22.7384 8.12657C23.635 8.47063 24.4513 8.99984 25.1354 9.68063C25.8123 10.3531 26.3485 11.1571 26.7117 12.0445C27.1103 13.0175 27.3087 14.0628 27.2948 15.1162C27.3094 16.172 27.111 17.2198 26.7117 18.1951C26.351 19.0903 25.8147 19.902 25.1354 20.5809C24.4475 21.2568 23.6323 21.7854 22.7384 22.135C20.779 22.8741 18.6227 22.8741 16.6634 22.135C15.7695 21.7854 14.9543 21.2568 14.2664 20.5809C13.5871 19.902 13.0508 19.0903 12.6901 18.1951C12.2961 17.2261 12.1002 16.1861 12.1142 15.1381ZM14.6623 15.1381C14.6538 15.8567 14.7733 16.571 15.015 17.2466C15.2341 17.876 15.5797 18.4523 16.0299 18.9393C16.4791 19.4216 17.0203 19.8064 17.6207 20.0702C18.9535 20.6248 20.4483 20.6248 21.7811 20.0702C22.3831 19.806 22.9247 19.4185 23.3719 18.932C23.8219 18.4436 24.1696 17.8677 24.394 17.2393C24.8547 15.8724 24.8547 14.3891 24.394 13.0222C24.1704 12.389 23.8227 11.8083 23.3719 11.3149C22.9269 10.824 22.3849 10.4337 21.7811 10.1695C20.4463 9.6249 18.9555 9.6249 17.6207 10.1695C17.0198 10.4377 16.4789 10.827 16.031 11.3136C15.583 11.8002 15.2374 12.3741 15.015 13.0003C14.7705 13.6853 14.651 14.4097 14.6623 15.1381Z" fill="white"/>
<path d="M42.7125 21.6972C42.7125 24.3238 42.0503 26.318 40.7259 27.68C39.4014 29.0443 37.4796 29.7228 34.9675 29.7228C33.6801 29.7407 32.3993 29.5333 31.1813 29.11C29.976 28.6471 28.8851 27.9225 27.9854 26.9868L29.6842 25.0169C30.3542 25.7822 31.1599 26.4133 32.0595 26.8774C32.9577 27.3124 33.9434 27.5297 34.9387 27.5121C35.8358 27.5414 36.7289 27.3773 37.5588 27.0306C38.212 26.7533 38.7826 26.3082 39.2143 25.7392C39.6251 25.1876 39.9147 24.5532 40.0637 23.8787C40.2309 23.1616 40.313 22.4268 40.3084 21.6899V19.8513H40.2508C39.7238 20.733 38.9529 21.4383 38.0338 21.8796C37.1614 22.3019 36.2078 22.5236 35.241 22.5289C34.1938 22.539 33.1539 22.3509 32.1747 21.9744C31.2812 21.6308 30.4658 21.1071 29.7777 20.435C29.1044 19.7724 28.5748 18.9748 28.223 18.093C27.8749 17.149 27.7111 16.1454 27.7407 15.1381C27.7254 14.0578 27.9085 12.984 28.2806 11.9716C28.6108 11.0718 29.134 10.2575 29.8124 9.58755C30.4908 8.91758 31.3075 8.40861 32.2035 8.09738C33.1958 7.73593 34.2442 7.558 35.2986 7.57206C35.783 7.57486 36.2658 7.63113 36.7382 7.73987C37.2384 7.85132 37.7223 8.02789 38.1778 8.26519C38.6158 8.49086 39.0184 8.78098 39.3727 9.12612C39.7423 9.48882 40.0511 9.91023 40.2868 10.3737H40.3444V7.93686H42.7125V21.6972ZM30.2672 15.1308C30.2584 15.8345 30.3932 16.5325 30.6631 17.181C31.1703 18.4055 32.1282 19.3817 33.3335 19.9024C33.9464 20.1728 34.6086 20.3095 35.277 20.3037C36.0188 20.3174 36.755 20.1706 37.4364 19.8732C38.0351 19.6093 38.5737 19.223 39.0183 18.7384C39.463 18.2538 39.8041 17.6813 40.0205 17.0569C40.2444 16.4201 40.3564 15.7484 40.3516 15.0724C40.3608 14.3429 40.2363 13.6181 39.9845 12.9347C39.7591 12.3094 39.4087 11.738 38.9552 11.2566C38.5044 10.7784 37.9568 10.4051 37.35 10.1622C36.6917 9.90292 35.9904 9.77413 35.2842 9.78276C34.58 9.77505 33.8817 9.91412 33.2328 10.1913C32.6316 10.4466 32.0916 10.8297 31.6492 11.3149C31.2 11.8136 30.8505 12.3959 30.6199 13.0295C30.379 13.7053 30.2595 14.4195 30.2672 15.1381V15.1308Z" fill="white"/>
<path d="M43.8356 15.1382C43.8228 14.0856 44.0186 13.041 44.4114 12.0665C44.7775 11.1742 45.3131 10.3635 45.9878 9.68074C46.6733 8.99826 47.4923 8.46888 48.3919 8.12668C50.3488 7.38746 52.5029 7.38746 54.4598 8.12668C55.3573 8.46901 56.1738 8.99844 56.8567 9.68074C57.5355 10.3617 58.0738 11.1727 58.4403 12.0665C58.8331 13.041 59.0289 14.0856 59.0161 15.1382C59.0295 16.1932 58.8337 17.2402 58.4403 18.2171C58.0738 19.111 57.5355 19.922 56.8567 20.6029C56.1701 21.2804 55.3545 21.8092 54.4598 22.157C52.5029 22.8962 50.3488 22.8962 48.3919 22.157C47.495 21.8093 46.6771 21.2806 45.9878 20.6029C45.3131 19.9201 44.7775 19.1095 44.4114 18.2171C44.0181 17.2402 43.8222 16.1932 43.8356 15.1382ZM46.3837 15.1382C46.3752 15.8568 46.4947 16.5711 46.7364 17.2467C46.9555 17.8761 47.3011 18.4524 47.7513 18.9394C48.1989 19.4203 48.7375 19.8049 49.3349 20.0703C50.6653 20.6245 52.1577 20.6245 53.4881 20.0703C54.0932 19.8075 54.6393 19.4227 55.0932 18.9394C55.5434 18.4524 55.889 17.8761 56.1082 17.2467C56.5783 15.8814 56.5783 14.3949 56.1082 13.0296C55.8857 12.4023 55.5392 11.8277 55.0899 11.3409C54.6406 10.8541 54.098 10.4654 53.4953 10.1988C52.1631 9.65388 50.6743 9.65388 49.3421 10.1988C48.7393 10.4654 48.1967 10.8541 47.7474 11.3409C47.2981 11.8277 46.9516 12.4023 46.7292 13.0296C46.4905 13.7059 46.3735 14.42 46.3837 15.1382Z" fill="white"/>
<path d="M63.292 0.552734H77.8967V4.98873H68.0499V9.04533H77.3712V13.5032H68.0499V17.8808H78.4653V22.3095H63.292V0.552734Z" fill="white"/>
<path d="M79.8398 7.38904H84.209V9.41734H84.2738C84.431 9.1009 84.6349 8.81059 84.8784 8.55641C85.1553 8.25493 85.4727 7.99457 85.8214 7.78303C86.6544 7.27196 87.6117 7.00665 88.5854 7.01694C89.5388 6.99625 90.4821 7.21959 91.3278 7.66629C92.143 8.11073 92.7813 8.82737 93.1345 9.69459C93.5704 8.84839 94.2344 8.14502 95.0492 7.66629C95.9059 7.23218 96.8559 7.02153 97.8132 7.05342C98.6758 7.026 99.533 7.20078 100.318 7.56415C100.963 7.8734 101.517 8.34891 101.923 8.9431C102.335 9.56941 102.623 10.2705 102.773 11.0079C102.947 11.8278 103.034 12.6644 103.032 13.5031V22.3313H98.4754V13.6345C98.4938 13.0044 98.342 12.3813 98.0363 11.8323C97.8669 11.5774 97.6316 11.3745 97.3562 11.2458C97.0807 11.1171 96.7757 11.0676 96.4744 11.1027C96.0213 11.0876 95.5708 11.1774 95.1571 11.3654C94.8121 11.5229 94.5177 11.7758 94.3078 12.095C94.0857 12.4181 93.9292 12.7826 93.8471 13.1675C93.7574 13.592 93.7116 14.0248 93.7103 14.4589V22.3386H89.1612V14.4297C89.1612 14.1671 89.1612 13.8387 89.1612 13.4448C89.1422 13.0689 89.0695 12.6978 88.9453 12.3431C88.8274 11.9977 88.6242 11.6887 88.3551 11.4456C88.0108 11.1812 87.5839 11.0517 87.153 11.0808C86.6534 11.0549 86.1561 11.1658 85.7134 11.4019C85.3609 11.6038 85.0716 11.9022 84.8784 12.2628C84.6799 12.6424 84.5507 13.0551 84.4969 13.4812C84.4381 13.9507 84.4093 14.4235 84.4106 14.8967V22.3386H79.8542L79.8398 7.38904Z" fill="white"/>
<path d="M104.126 2.6763C104.121 2.32418 104.188 1.97482 104.322 1.6498C104.455 1.32478 104.653 1.031 104.904 0.786625C105.148 0.537351 105.438 0.339514 105.758 0.204509C106.078 0.0695042 106.421 0 106.768 0C107.114 0 107.458 0.0695042 107.778 0.204509C108.098 0.339514 108.388 0.537351 108.632 0.786625C108.882 1.031 109.08 1.32478 109.214 1.6498C109.348 1.97482 109.414 2.32418 109.41 2.6763C109.41 3.38646 109.131 4.06753 108.636 4.56968C108.14 5.07184 107.468 5.35395 106.768 5.35395C106.067 5.35395 105.395 5.07184 104.9 4.56968C104.405 4.06753 104.126 3.38646 104.126 2.6763ZM104.493 7.38954H109.078V22.3391H104.529L104.493 7.38954Z" fill="white"/>
<path d="M110.518 7.38903H114.887V9.41733H114.944C115.107 9.10231 115.313 8.81241 115.556 8.5564C115.831 8.25547 116.146 7.99513 116.492 7.78302C116.876 7.54932 117.287 7.36316 117.716 7.22852C118.209 7.08482 118.721 7.01357 119.234 7.01694C120.194 6.97748 121.149 7.16221 122.027 7.55684C122.702 7.87777 123.275 8.38309 123.683 9.01605C124.105 9.71821 124.382 10.5002 124.496 11.3143C124.643 12.2407 124.712 13.1778 124.705 14.116V22.3605H120.156V15.0645C120.156 14.6267 120.156 14.1816 120.105 13.722C120.084 13.284 119.992 12.8526 119.832 12.4452C119.691 12.0213 119.412 11.6591 119.04 11.4188C118.668 11.1785 118.226 11.0747 117.788 11.1246C117.288 11.0968 116.79 11.2078 116.348 11.4456C116.015 11.6397 115.742 11.9223 115.556 12.2628C115.354 12.641 115.225 13.0544 115.175 13.4812C115.11 13.9501 115.079 14.4232 115.081 14.8967V22.3386H110.518V7.38903Z" fill="white"/>
<path d="M140.066 19.7556C139.337 20.7022 138.39 21.4537 137.309 21.9444C136.224 22.4546 135.043 22.7186 133.847 22.7178C132.755 22.7268 131.67 22.539 130.644 22.1633C129.679 21.814 128.791 21.2761 128.031 20.5801C127.289 19.8826 126.696 19.0383 126.289 18.0994C125.851 17.0804 125.633 15.9785 125.648 14.8673C125.633 13.7584 125.852 12.659 126.289 11.6424C126.694 10.7025 127.287 9.85783 128.031 9.16175C128.797 8.45711 129.695 7.91616 130.672 7.57121C131.699 7.19548 132.784 7.00773 133.876 7.01671C134.863 6.99945 135.843 7.1882 136.755 7.57121C137.584 7.92563 138.322 8.46712 138.914 9.15445C139.534 9.87911 140.004 10.7227 140.296 11.6351C140.631 12.6758 140.794 13.7654 140.778 14.86V16.3192H130.205C130.353 17.1362 130.772 17.8775 131.392 18.4204C132.023 18.9465 132.821 19.2238 133.638 19.2011C134.306 19.2232 134.966 19.0483 135.538 18.6977C136.063 18.3457 136.522 17.9009 136.891 17.3844L140.066 19.7556ZM136.215 13.1892C136.23 12.8206 136.171 12.4528 136.039 12.1088C135.908 11.7648 135.708 11.452 135.452 11.19C135.19 10.915 134.874 10.6988 134.524 10.5556C134.174 10.4123 133.799 10.3451 133.422 10.3583C132.563 10.335 131.729 10.6517 131.097 11.2411C130.829 11.4917 130.614 11.7944 130.464 12.1312C130.314 12.4647 130.226 12.8233 130.205 13.1892H136.215Z" fill="white"/>
<path d="M141.707 7.38964H146.076V9.41794H146.141C146.303 9.10465 146.507 8.81505 146.745 8.55701C147.022 8.25554 147.34 7.99518 147.688 7.78363C148.079 7.54701 148.497 7.36073 148.934 7.22913C149.427 7.08543 149.939 7.01418 150.452 7.01754C151.412 6.97965 152.367 7.16431 153.245 7.55745C153.919 7.88063 154.492 8.38547 154.901 9.01666C155.321 9.71835 155.593 10.501 155.7 11.3149C155.849 12.241 155.921 13.1782 155.916 14.1166V22.3611H151.359V15.0651C151.359 14.6273 151.359 14.1823 151.316 13.7226C151.291 13.2851 151.199 12.8543 151.043 12.4458C150.895 12.0653 150.646 11.7343 150.323 11.49C149.923 11.2229 149.448 11.0949 148.97 11.1252C148.47 11.0993 147.973 11.2101 147.53 11.4462C147.179 11.6501 146.89 11.9479 146.695 12.3072C146.497 12.6867 146.367 13.0995 146.314 13.5256C146.255 13.9951 146.226 14.4678 146.227 14.941V22.383H141.671L141.707 7.38964Z" fill="white"/>
<path d="M167.382 11.0809H163.351V16.0641C163.349 16.4397 163.371 16.8149 163.416 17.1877C163.445 17.4959 163.538 17.7943 163.689 18.0632C163.837 18.3208 164.065 18.5211 164.337 18.6323C164.711 18.778 165.11 18.845 165.511 18.8293C165.831 18.8246 166.151 18.8003 166.468 18.7564C166.795 18.7332 167.106 18.6083 167.36 18.3988V22.2585C166.851 22.4433 166.322 22.5658 165.784 22.6233C165.249 22.6869 164.711 22.7186 164.172 22.7181C163.444 22.7288 162.719 22.6454 162.012 22.47C161.401 22.3258 160.824 22.0605 160.314 21.6894C159.824 21.3269 159.433 20.8451 159.176 20.2885C158.886 19.6305 158.746 18.9149 158.766 18.1946V11.0809H155.865V7.38912H158.78V2.95312H163.33V7.38912H167.382V11.0809Z" fill="white"/>
</svg>
